<svg height="400" width="400" xmlns="http://www.w3.org/2000/svg" xmlns:xlink="http://www.w3.org/1999/xlink"><rect x="0" y="0" width="400" height="400" fill="#FFFFFF"></rect><path x="0" y="0" width="80" height="80" d="M31.73023 69.125c-16.19784 0-22.676976-6.5-22.676976-20.75V4.5c0-3.125 1.370587-4.5 4.485556-4.5h19.31281c3.11497 0 4.485556 1.375 4.485556 4.5v34.25c0 2.625 1.495185 4.25 3.862561 4.25h11.587686V4.5c0-3.125 1.370587-4.5 4.485556-4.5h19.18821c3.11497 0 4.485557 1.375 4.485557 4.5v81c0 3.125-1.370587 4.5-4.485556 4.5H57.272979c-3.11497 0-4.485556-1.375-4.485556-4.5V69.125H31.730231Z" transform="translate(11.199999999999989 11.199999999999989) scale(2.006666666666667)" fill="#04D89D"></path><path x="0" y="0" width="80" height="80" d="M22.747253 90c-3.178964 0-4.401643-1.346939-4.401643-4.408163v-14.44898c0-3.061224 1.344947-4.408163 4.401643-4.408163h22.864086c5.991124 0 7.702874-1.34694 7.702874-7.346939v-2.693878c-3.91257 1.22449-9.04782 1.836735-15.528016 1.836735-22.13048 0-28.732943-7.469387-28.732943-22.040816V24.734694C9.053254 9.795918 16.14479 0 44.266393 0c30.07789 0 36.680353 9.795918 36.680353 24.734694v40.163265C80.946746 79.836735 73.977478 90 50.868856 90H22.747253Zm30.56696-63.306122c0-2.571429-1.10041-4.530613-8.191945-4.530613s-8.436481 1.959184-8.436481 4.530613v7.22449c0 2.448979 1.10041 4.408163 8.43648 4.408163 7.336071 0 8.191946-1.959184 8.191946-4.408164v-7.22449Z" transform="translate(208.2 109.69999999999999) scale(2.006666666666667)" fill="#04D89D"></path><path x="0" y="0" width="90" height="90" d="M0 0v89.757367h89.971787V0H0Zm32.84859 4.231975h24.274608v24.27743H32.848589V4.231974Zm-28.616615 0h24.27743v24.27743H4.231974V4.231974Zm24.27743 81.293417H4.231974V61.250784h24.27743v24.274608ZM4.231974 57.018809v-24.27743h24.38464v24.27743H4.231974Zm52.891223 28.506583H32.848589V61.250784h24.274609v24.274608Zm.10721-28.506583H32.741378v-24.27743h24.489028v24.27743Zm28.509404 28.506583h-24.27743V61.250784h24.27743v24.274608Zm0-28.506583h-24.38464v-24.27743h24.38464v24.27743Zm0-28.509405h-24.27743V4.231974h24.27743v24.27743Z" fill="#032B44" transform="translate(46 46) scale(3.422222222222222)"></path><path x="0" y="0" width="80" height="80" d="M90 0v25.228929H57.484628V90H32.330911V25.228929H0V0z" transform="translate(274.85 77.85) scale(0.5255555555555557)" fill="#032B44"></path><path x="0" y="0" width="80" height="80" d="M87 0v90H61.749499V57.662556H28.250501V90H3V0h25.250501v32.438341h33.498998V0z" transform="translate(77.85 176.35) scale(0.5255555555555557)" fill="#032B44"></path><path x="0" y="0" width="80" height="80" d="M37.252525 25.238362v9.035334h23.013468v20.19069H37.252525v10.297252H77V90H12V0h65v25.238362z" transform="translate(274.85 176.35) scale(0.5255555555555557)" fill="#032B44"></path></svg>