<svg width="181" height="24" viewBox="0 0 181 24" fill="none" xmlns="http://www.w3.org/2000/svg">
<g clip-path="url(#clip0_214_160)">
<path d="M21.5795 8.21023V7.27273H28.125V8.21023H25.3807V16H24.3239V8.21023H21.5795ZM30.6254 12.0625V16H29.6197V7.27273H30.6254V10.4773H30.7106C30.864 10.1392 31.0941 9.87074 31.4009 9.67188C31.7106 9.47017 32.1225 9.36932 32.6367 9.36932C33.0827 9.36932 33.4734 9.45881 33.8086 9.63778C34.1438 9.81392 34.4038 10.0852 34.5884 10.4517C34.7759 10.8153 34.8697 11.2784 34.8697 11.8409V16H33.864V11.9091C33.864 11.3892 33.729 10.9872 33.4592 10.7031C33.1921 10.4162 32.8214 10.2727 32.3469 10.2727C32.0174 10.2727 31.7219 10.3423 31.4606 10.4815C31.2021 10.6207 30.9975 10.8239 30.8469 11.0909C30.6992 11.358 30.6254 11.6818 30.6254 12.0625ZM39.4538 16.1364C38.8232 16.1364 38.2791 15.9972 37.8217 15.7188C37.3672 15.4375 37.0163 15.0455 36.7692 14.5426C36.5249 14.0369 36.4027 13.4489 36.4027 12.7784C36.4027 12.108 36.5249 11.517 36.7692 11.0057C37.0163 10.4915 37.3601 10.0909 37.8004 9.80398C38.2436 9.5142 38.7607 9.36932 39.3516 9.36932C39.6925 9.36932 40.0291 9.42614 40.3615 9.53977C40.6939 9.65341 40.9964 9.83807 41.2692 10.0938C41.5419 10.3466 41.7592 10.6818 41.9212 11.0994C42.0831 11.517 42.1641 12.0312 42.1641 12.642V13.0682H37.1186V12.1989H41.1413C41.1413 11.8295 41.0675 11.5 40.9197 11.2102C40.7749 10.9205 40.5675 10.6918 40.2976 10.5241C40.0305 10.3565 39.7152 10.2727 39.3516 10.2727C38.951 10.2727 38.6044 10.3722 38.3118 10.571C38.022 10.767 37.799 11.0227 37.6428 11.3381C37.4865 11.6534 37.4084 11.9915 37.4084 12.3523V12.9318C37.4084 13.4261 37.4936 13.8452 37.6641 14.1889C37.8374 14.5298 38.0774 14.7898 38.3842 14.9688C38.6911 15.1449 39.0476 15.233 39.4538 15.233C39.718 15.233 39.9567 15.196 40.1697 15.1222C40.3857 15.0455 40.5717 14.9318 40.728 14.7812C40.8842 14.6278 41.005 14.4375 41.0902 14.2102L42.0618 14.483C41.9595 14.8125 41.7876 15.1023 41.5462 15.3523C41.3047 15.5994 41.0064 15.7926 40.6513 15.9318C40.2962 16.0682 39.897 16.1364 39.4538 16.1364ZM43.4723 14.2102V13.3409L47.3075 7.27273H47.9382V8.61932H47.5121L44.6143 13.2045V13.2727H49.7791V14.2102H43.4723ZM47.5803 16V13.946V13.5412V7.27273H48.5859V16H47.5803ZM54.1545 7.15341C54.5124 7.15625 54.8704 7.22443 55.2283 7.35795C55.5863 7.49148 55.913 7.71307 56.2085 8.02273C56.5039 8.32955 56.7411 8.74858 56.9201 9.27983C57.0991 9.81108 57.1886 10.4773 57.1886 11.2784C57.1886 12.054 57.1147 12.7429 56.967 13.3452C56.8221 13.9446 56.6119 14.4503 56.3363 14.8622C56.0636 15.2741 55.7312 15.5866 55.3391 15.7997C54.9499 16.0128 54.5096 16.1193 54.0181 16.1193C53.5295 16.1193 53.0934 16.0227 52.7099 15.8295C52.3292 15.6335 52.0167 15.3622 51.7724 15.0156C51.5309 14.6662 51.3761 14.2614 51.3079 13.8011H52.3477C52.4414 14.2017 52.6275 14.5327 52.9059 14.794C53.1871 15.0526 53.5579 15.1818 54.0181 15.1818C54.6914 15.1818 55.2227 14.8878 55.6119 14.2997C56.0039 13.7116 56.1999 12.8807 56.1999 11.8068H56.1317C55.9727 12.0455 55.7837 12.2514 55.565 12.4247C55.3462 12.598 55.1033 12.7315 54.8363 12.8253C54.5692 12.919 54.2852 12.9659 53.984 12.9659C53.484 12.9659 53.0252 12.8423 52.6076 12.5952C52.1928 12.3452 51.8604 12.0028 51.6104 11.5682C51.3633 11.1307 51.2397 10.6307 51.2397 10.0682C51.2397 9.53409 51.359 9.04545 51.5977 8.60227C51.8391 8.15625 52.1772 7.80114 52.6119 7.53693C53.0494 7.27273 53.5636 7.14489 54.1545 7.15341ZM54.1545 8.09091C53.7965 8.09091 53.4741 8.1804 53.1871 8.35938C52.9031 8.53551 52.6772 8.77415 52.5096 9.07528C52.3448 9.37358 52.2624 9.70455 52.2624 10.0682C52.2624 10.4318 52.342 10.7628 52.5011 11.0611C52.663 11.3565 52.8832 11.5923 53.1616 11.7685C53.4428 11.9418 53.7624 12.0284 54.1204 12.0284C54.3903 12.0284 54.6417 11.9759 54.8746 11.8707C55.1076 11.7628 55.3107 11.6165 55.484 11.4318C55.6602 11.2443 55.7979 11.0327 55.8974 10.7969C55.9968 10.5582 56.0465 10.3097 56.0465 10.0511C56.0465 9.71023 55.9641 9.39062 55.7994 9.09233C55.6374 8.79403 55.413 8.55256 55.1261 8.3679C54.842 8.18324 54.5181 8.09091 54.1545 8.09091ZM59.3097 16.0682C59.0994 16.0682 58.919 15.9929 58.7685 15.8423C58.6179 15.6918 58.5426 15.5114 58.5426 15.3011C58.5426 15.0909 58.6179 14.9105 58.7685 14.7599C58.919 14.6094 59.0994 14.5341 59.3097 14.5341C59.5199 14.5341 59.7003 14.6094 59.8509 14.7599C60.0014 14.9105 60.0767 15.0909 60.0767 15.3011C60.0767 15.4403 60.0412 15.5682 59.9702 15.6847C59.902 15.8011 59.8097 15.8949 59.6932 15.9659C59.5795 16.0341 59.4517 16.0682 59.3097 16.0682ZM62.0178 7.27273H63.2791L66.245 14.517H66.3473L69.3132 7.27273H70.5746V16H69.5859V9.36932H69.5007L66.7734 16H65.8189L63.0916 9.36932H63.0064V16H62.0178V7.27273ZM74.4833 16.1534C74.0685 16.1534 73.6921 16.0753 73.354 15.919C73.016 15.7599 72.7475 15.5312 72.5487 15.233C72.3498 14.9318 72.2504 14.5682 72.2504 14.142C72.2504 13.767 72.3242 13.4631 72.4719 13.2301C72.6197 12.9943 72.8171 12.8097 73.0643 12.6761C73.3114 12.5426 73.5842 12.4432 73.8825 12.3778C74.1836 12.3097 74.4862 12.2557 74.7901 12.2159C75.1879 12.1648 75.5103 12.1264 75.7575 12.1009C76.0075 12.0724 76.1893 12.0256 76.3029 11.9602C76.4194 11.8949 76.4776 11.7812 76.4776 11.6193V11.5852C76.4776 11.1648 76.3626 10.8381 76.1325 10.6051C75.9052 10.3722 75.56 10.2557 75.0969 10.2557C74.6168 10.2557 74.2404 10.3608 73.9677 10.571C73.695 10.7812 73.5032 11.0057 73.3924 11.2443L72.4379 10.9034C72.6083 10.5057 72.8356 10.196 73.1197 9.97443C73.4066 9.75 73.7191 9.59375 74.0572 9.50568C74.3981 9.41477 74.7333 9.36932 75.0629 9.36932C75.2731 9.36932 75.5146 9.39489 75.7873 9.44602C76.0629 9.49432 76.3285 9.59517 76.5842 9.74858C76.8427 9.90199 77.0572 10.1335 77.2276 10.4432C77.3981 10.7528 77.4833 11.1676 77.4833 11.6875V16H76.4776V15.1136H76.4265C76.3583 15.2557 76.2447 15.4077 76.0856 15.5696C75.9265 15.7315 75.7148 15.8693 75.4506 15.983C75.1864 16.0966 74.864 16.1534 74.4833 16.1534ZM74.6367 15.25C75.0344 15.25 75.3697 15.1719 75.6424 15.0156C75.918 14.8594 76.1254 14.6577 76.2646 14.4105C76.4066 14.1634 76.4776 13.9034 76.4776 13.6307V12.7102C76.435 12.7614 76.3413 12.8082 76.1964 12.8509C76.0543 12.8906 75.8896 12.9261 75.7021 12.9574C75.5174 12.9858 75.337 13.0114 75.1609 13.0341C74.9876 13.054 74.8469 13.071 74.739 13.0852C74.4776 13.1193 74.2333 13.1747 74.006 13.2514C73.7816 13.3253 73.5998 13.4375 73.4606 13.5881C73.3242 13.7358 73.256 13.9375 73.256 14.1932C73.256 14.5426 73.3853 14.8068 73.6438 14.9858C73.9052 15.1619 74.2362 15.25 74.6367 15.25ZM83.4439 13.3239V9.45455H84.4496V16H83.4439V14.892H83.3757C83.2223 15.2244 82.9837 15.5071 82.6598 15.7401C82.3359 15.9702 81.9268 16.0852 81.4325 16.0852C81.0234 16.0852 80.6598 15.9957 80.3416 15.8168C80.0234 15.6349 79.7734 15.3622 79.5916 14.9986C79.4098 14.6321 79.3189 14.1705 79.3189 13.6136V9.45455H80.3246V13.5455C80.3246 14.0227 80.4581 14.4034 80.7251 14.6875C80.995 14.9716 81.3388 15.1136 81.7564 15.1136C82.0064 15.1136 82.2607 15.0497 82.5192 14.9219C82.7805 14.794 82.9993 14.598 83.1754 14.3338C83.3544 14.0696 83.4439 13.733 83.4439 13.3239ZM86.2915 16V9.45455H87.2972V16H86.2915ZM86.8029 8.36364C86.6069 8.36364 86.4379 8.29688 86.2958 8.16335C86.1566 8.02983 86.087 7.86932 86.087 7.68182C86.087 7.49432 86.1566 7.33381 86.2958 7.20028C86.4379 7.06676 86.6069 7 86.8029 7C86.9989 7 87.1665 7.06676 87.3058 7.20028C87.4478 7.33381 87.5188 7.49432 87.5188 7.68182C87.5188 7.86932 87.4478 8.02983 87.3058 8.16335C87.1665 8.29688 86.9989 8.36364 86.8029 8.36364ZM89.8722 16.0682C89.6619 16.0682 89.4815 15.9929 89.331 15.8423C89.1804 15.6918 89.1051 15.5114 89.1051 15.3011C89.1051 15.0909 89.1804 14.9105 89.331 14.7599C89.4815 14.6094 89.6619 14.5341 89.8722 14.5341C90.0824 14.5341 90.2628 14.6094 90.4134 14.7599C90.5639 14.9105 90.6392 15.0909 90.6392 15.3011C90.6392 15.4403 90.6037 15.5682 90.5327 15.6847C90.4645 15.8011 90.3722 15.8949 90.2557 15.9659C90.142 16.0341 90.0142 16.0682 89.8722 16.0682ZM92.5803 7.27273H93.8416L96.8075 14.517H96.9098L99.8757 7.27273H101.137V16H100.148V9.36932H100.063L97.3359 16H96.3814L93.6541 9.36932H93.5689V16H92.5803V7.27273ZM105.046 16.1534C104.631 16.1534 104.255 16.0753 103.917 15.919C103.578 15.7599 103.31 15.5312 103.111 15.233C102.912 14.9318 102.813 14.5682 102.813 14.142C102.813 13.767 102.887 13.4631 103.034 13.2301C103.182 12.9943 103.38 12.8097 103.627 12.6761C103.874 12.5426 104.147 12.4432 104.445 12.3778C104.746 12.3097 105.049 12.2557 105.353 12.2159C105.75 12.1648 106.073 12.1264 106.32 12.1009C106.57 12.0724 106.752 12.0256 106.865 11.9602C106.982 11.8949 107.04 11.7812 107.04 11.6193V11.5852C107.04 11.1648 106.925 10.8381 106.695 10.6051C106.468 10.3722 106.123 10.2557 105.659 10.2557C105.179 10.2557 104.803 10.3608 104.53 10.571C104.257 10.7812 104.066 11.0057 103.955 11.2443L103 10.9034C103.171 10.5057 103.398 10.196 103.682 9.97443C103.969 9.75 104.282 9.59375 104.62 9.50568C104.961 9.41477 105.296 9.36932 105.625 9.36932C105.836 9.36932 106.077 9.39489 106.35 9.44602C106.625 9.49432 106.891 9.59517 107.147 9.74858C107.405 9.90199 107.62 10.1335 107.79 10.4432C107.961 10.7528 108.046 11.1676 108.046 11.6875V16H107.04V15.1136H106.989C106.921 15.2557 106.807 15.4077 106.648 15.5696C106.489 15.7315 106.277 15.8693 106.013 15.983C105.749 16.0966 105.426 16.1534 105.046 16.1534ZM105.199 15.25C105.597 15.25 105.932 15.1719 106.205 15.0156C106.48 14.8594 106.688 14.6577 106.827 14.4105C106.969 14.1634 107.04 13.9034 107.04 13.6307V12.7102C106.998 12.7614 106.904 12.8082 106.759 12.8509C106.617 12.8906 106.452 12.9261 106.265 12.9574C106.08 12.9858 105.9 13.0114 105.723 13.0341C105.55 13.054 105.409 13.071 105.301 13.0852C105.04 13.1193 104.796 13.1747 104.569 13.2514C104.344 13.3253 104.162 13.4375 104.023 13.5881C103.887 13.7358 103.819 13.9375 103.819 14.1932C103.819 14.5426 103.948 14.8068 104.206 14.9858C104.468 15.1619 104.799 15.25 105.199 15.25ZM112.728 9.45455V10.3068H109.336V9.45455H112.728ZM110.325 7.88636H111.33V14.125C111.33 14.4091 111.371 14.6222 111.454 14.7642C111.539 14.9034 111.647 14.9972 111.778 15.0455C111.911 15.0909 112.052 15.1136 112.2 15.1136C112.31 15.1136 112.401 15.108 112.472 15.0966C112.543 15.0824 112.6 15.071 112.643 15.0625L112.847 15.9659C112.779 15.9915 112.684 16.017 112.562 16.0426C112.44 16.071 112.285 16.0852 112.097 16.0852C111.813 16.0852 111.535 16.0241 111.262 15.902C110.992 15.7798 110.768 15.5938 110.589 15.3438C110.413 15.0938 110.325 14.7784 110.325 14.3977V7.88636ZM116.915 16.1364C116.284 16.1364 115.74 15.9972 115.283 15.7188C114.828 15.4375 114.477 15.0455 114.23 14.5426C113.986 14.0369 113.864 13.4489 113.864 12.7784C113.864 12.108 113.986 11.517 114.23 11.0057C114.477 10.4915 114.821 10.0909 115.261 9.80398C115.705 9.5142 116.222 9.36932 116.812 9.36932C117.153 9.36932 117.49 9.42614 117.822 9.53977C118.155 9.65341 118.457 9.83807 118.73 10.0938C119.003 10.3466 119.22 10.6818 119.382 11.0994C119.544 11.517 119.625 12.0312 119.625 12.642V13.0682H114.58V12.1989H118.602C118.602 11.8295 118.528 11.5 118.381 11.2102C118.236 10.9205 118.028 10.6918 117.759 10.5241C117.491 10.3565 117.176 10.2727 116.812 10.2727C116.412 10.2727 116.065 10.3722 115.773 10.571C115.483 10.767 115.26 11.0227 115.104 11.3381C114.947 11.6534 114.869 11.9915 114.869 12.3523V12.9318C114.869 13.4261 114.955 13.8452 115.125 14.1889C115.298 14.5298 115.538 14.7898 115.845 14.9688C116.152 15.1449 116.509 15.233 116.915 15.233C117.179 15.233 117.418 15.196 117.631 15.1222C117.847 15.0455 118.033 14.9318 118.189 14.7812C118.345 14.6278 118.466 14.4375 118.551 14.2102L119.523 14.483C119.42 14.8125 119.249 15.1023 119.007 15.3523C118.766 15.5994 118.467 15.7926 118.112 15.9318C117.757 16.0682 117.358 16.1364 116.915 16.1364ZM121.155 16V9.45455H122.126V10.4432H122.195C122.314 10.1193 122.53 9.85653 122.842 9.65483C123.155 9.45312 123.507 9.35227 123.899 9.35227C123.973 9.35227 124.065 9.35369 124.176 9.35653C124.287 9.35937 124.371 9.36364 124.428 9.36932V10.392C124.393 10.3835 124.315 10.3707 124.193 10.3537C124.074 10.3338 123.947 10.3239 123.814 10.3239C123.496 10.3239 123.212 10.3906 122.962 10.5241C122.714 10.6548 122.518 10.8366 122.374 11.0696C122.232 11.2997 122.161 11.5625 122.161 11.858V16H121.155ZM125.62 16V9.45455H126.625V16H125.62ZM126.131 8.36364C125.935 8.36364 125.766 8.29688 125.624 8.16335C125.485 8.02983 125.415 7.86932 125.415 7.68182C125.415 7.49432 125.485 7.33381 125.624 7.20028C125.766 7.06676 125.935 7 126.131 7C126.327 7 126.495 7.06676 126.634 7.20028C126.776 7.33381 126.847 7.49432 126.847 7.68182C126.847 7.86932 126.776 8.02983 126.634 8.16335C126.495 8.29688 126.327 8.36364 126.131 8.36364ZM130.393 16.1534C129.979 16.1534 129.602 16.0753 129.264 15.919C128.926 15.7599 128.658 15.5312 128.459 15.233C128.26 14.9318 128.161 14.5682 128.161 14.142C128.161 13.767 128.234 13.4631 128.382 13.2301C128.53 12.9943 128.727 12.8097 128.974 12.6761C129.222 12.5426 129.494 12.4432 129.793 12.3778C130.094 12.3097 130.396 12.2557 130.7 12.2159C131.098 12.1648 131.42 12.1264 131.668 12.1009C131.918 12.0724 132.099 12.0256 132.213 11.9602C132.33 11.8949 132.388 11.7812 132.388 11.6193V11.5852C132.388 11.1648 132.273 10.8381 132.043 10.6051C131.815 10.3722 131.47 10.2557 131.007 10.2557C130.527 10.2557 130.151 10.3608 129.878 10.571C129.605 10.7812 129.413 11.0057 129.303 11.2443L128.348 10.9034C128.518 10.5057 128.746 10.196 129.03 9.97443C129.317 9.75 129.629 9.59375 129.967 9.50568C130.308 9.41477 130.643 9.36932 130.973 9.36932C131.183 9.36932 131.425 9.39489 131.697 9.44602C131.973 9.49432 132.239 9.59517 132.494 9.74858C132.753 9.90199 132.967 10.1335 133.138 10.4432C133.308 10.7528 133.393 11.1676 133.393 11.6875V16H132.388V15.1136H132.337C132.268 15.2557 132.155 15.4077 131.996 15.5696C131.837 15.7315 131.625 15.8693 131.361 15.983C131.097 16.0966 130.774 16.1534 130.393 16.1534ZM130.547 15.25C130.945 15.25 131.28 15.1719 131.553 15.0156C131.828 14.8594 132.036 14.6577 132.175 14.4105C132.317 14.1634 132.388 13.9034 132.388 13.6307V12.7102C132.345 12.7614 132.251 12.8082 132.107 12.8509C131.964 12.8906 131.8 12.9261 131.612 12.9574C131.428 12.9858 131.247 13.0114 131.071 13.0341C130.898 13.054 130.757 13.071 130.649 13.0852C130.388 13.1193 130.143 13.1747 129.916 13.2514C129.692 13.3253 129.51 13.4375 129.371 13.5881C129.234 13.7358 129.166 13.9375 129.166 14.1932C129.166 14.5426 129.295 14.8068 129.554 14.9858C129.815 15.1619 130.146 15.25 130.547 15.25ZM136.235 7.27273V16H135.229V7.27273H136.235ZM142.986 9.45455C142.935 9.02273 142.727 8.6875 142.364 8.44886C142 8.21023 141.554 8.09091 141.026 8.09091C140.639 8.09091 140.301 8.15341 140.011 8.27841C139.724 8.40341 139.5 8.57528 139.338 8.79403C139.179 9.01278 139.099 9.26136 139.099 9.53977C139.099 9.77273 139.155 9.97301 139.266 10.1406C139.379 10.3054 139.524 10.4432 139.7 10.554C139.876 10.6619 140.061 10.7514 140.254 10.8224C140.447 10.8906 140.625 10.946 140.787 10.9886L141.673 11.2273C141.901 11.2869 142.153 11.3693 142.432 11.4744C142.713 11.5795 142.982 11.723 143.237 11.9048C143.496 12.0838 143.709 12.3139 143.876 12.5952C144.044 12.8764 144.128 13.2216 144.128 13.6307C144.128 14.1023 144.004 14.5284 143.757 14.9091C143.513 15.2898 143.155 15.5923 142.683 15.8168C142.214 16.0412 141.645 16.1534 140.974 16.1534C140.349 16.1534 139.808 16.0526 139.351 15.8509C138.896 15.6491 138.538 15.3679 138.277 15.0071C138.018 14.6463 137.872 14.2273 137.838 13.75H138.929C138.957 14.0795 139.068 14.3523 139.261 14.5682C139.457 14.7812 139.705 14.9403 140.003 15.0455C140.304 15.1477 140.628 15.1989 140.974 15.1989C141.378 15.1989 141.74 15.1335 142.061 15.0028C142.382 14.8693 142.636 14.6847 142.824 14.4489C143.011 14.2102 143.105 13.9318 143.105 13.6136C143.105 13.3239 143.024 13.0881 142.862 12.9062C142.7 12.7244 142.487 12.5767 142.223 12.4631C141.959 12.3494 141.673 12.25 141.366 12.1648L140.293 11.858C139.611 11.6619 139.071 11.3821 138.673 11.0185C138.276 10.6548 138.077 10.179 138.077 9.59091C138.077 9.10227 138.209 8.67614 138.473 8.3125C138.74 7.94602 139.098 7.66193 139.547 7.46023C139.999 7.25568 140.503 7.15341 141.06 7.15341C141.622 7.15341 142.122 7.25426 142.56 7.45597C142.997 7.65483 143.344 7.92756 143.599 8.27415C143.858 8.62074 143.994 9.0142 144.009 9.45455H142.986ZM147.212 16L145.218 9.45455H146.275L147.689 14.4659H147.757L149.155 9.45455H150.229L151.61 14.4489H151.678L153.093 9.45455H154.15L152.155 16H151.167L149.735 10.9716H149.632L148.201 16H147.212ZM155.479 16V9.45455H156.485V16H155.479ZM155.99 8.36364C155.794 8.36364 155.625 8.29688 155.483 8.16335C155.344 8.02983 155.275 7.86932 155.275 7.68182C155.275 7.49432 155.344 7.33381 155.483 7.20028C155.625 7.06676 155.794 7 155.99 7C156.186 7 156.354 7.06676 156.493 7.20028C156.635 7.33381 156.706 7.49432 156.706 7.68182C156.706 7.86932 156.635 8.02983 156.493 8.16335C156.354 8.29688 156.186 8.36364 155.99 8.36364ZM161.173 9.45455V10.3068H157.781V9.45455H161.173ZM158.77 7.88636H159.776V14.125C159.776 14.4091 159.817 14.6222 159.899 14.7642C159.984 14.9034 160.092 14.9972 160.223 15.0455C160.357 15.0909 160.497 15.1136 160.645 15.1136C160.756 15.1136 160.847 15.108 160.918 15.0966C160.989 15.0824 161.045 15.071 161.088 15.0625L161.293 15.9659C161.224 15.9915 161.129 16.017 161.007 16.0426C160.885 16.071 160.73 16.0852 160.543 16.0852C160.259 16.0852 159.98 16.0241 159.707 15.902C159.438 15.7798 159.213 15.5938 159.034 15.3438C158.858 15.0938 158.77 14.7784 158.77 14.3977V7.88636ZM165.275 16.1364C164.661 16.1364 164.133 15.9915 163.69 15.7017C163.246 15.4119 162.906 15.0128 162.667 14.5043C162.428 13.9957 162.309 13.4148 162.309 12.7614C162.309 12.0966 162.431 11.5099 162.675 11.0014C162.923 10.4901 163.266 10.0909 163.707 9.80398C164.15 9.5142 164.667 9.36932 165.258 9.36932C165.718 9.36932 166.133 9.45455 166.502 9.625C166.871 9.79545 167.174 10.0341 167.41 10.3409C167.646 10.6477 167.792 11.0057 167.849 11.4148H166.843C166.766 11.1165 166.596 10.8523 166.332 10.6222C166.07 10.3892 165.718 10.2727 165.275 10.2727C164.883 10.2727 164.539 10.375 164.244 10.5795C163.951 10.7812 163.722 11.0668 163.558 11.4361C163.396 11.8026 163.315 12.233 163.315 12.7273C163.315 13.233 163.394 13.6733 163.553 14.0483C163.715 14.4233 163.942 14.7145 164.235 14.9219C164.531 15.1293 164.877 15.233 165.275 15.233C165.536 15.233 165.773 15.1875 165.987 15.0966C166.2 15.0057 166.38 14.875 166.528 14.7045C166.675 14.5341 166.781 14.3295 166.843 14.0909H167.849C167.792 14.4773 167.651 14.8253 167.427 15.1349C167.205 15.4418 166.911 15.6861 166.545 15.8679C166.181 16.0469 165.758 16.1364 165.275 16.1364ZM170.325 12.0625V16H169.319V7.27273H170.325V10.4773H170.41C170.563 10.1392 170.793 9.87074 171.1 9.67188C171.41 9.47017 171.822 9.36932 172.336 9.36932C172.782 9.36932 173.173 9.45881 173.508 9.63778C173.843 9.81392 174.103 10.0852 174.288 10.4517C174.475 10.8153 174.569 11.2784 174.569 11.8409V16H173.563V11.9091C173.563 11.3892 173.428 10.9872 173.158 10.7031C172.891 10.4162 172.521 10.2727 172.046 10.2727C171.717 10.2727 171.421 10.3423 171.16 10.4815C170.901 10.6207 170.697 10.8239 170.546 11.0909C170.398 11.358 170.325 11.6818 170.325 12.0625Z" fill="black"/>
<rect x="5" y="8" width="14" height="8" rx="4" fill="#006C4D"/>
<rect x="11.7307" y="8.88452" width="6.23077" height="6.23077" rx="3.11538" fill="white"/>
</g>
<defs>
<clipPath id="clip0_214_160">
<rect width="181" height="24" fill="white"/>
</clipPath>
</defs>
</svg>
